<?xml version="1.0" standalone="no"?>
<!DOCTYPE svg PUBLIC "-//W3C//DTD SVG 20010904//EN"
 "http://www.w3.org/TR/2001/REC-SVG-20010904/DTD/svg10.dtd">
<svg version="1.0" xmlns="http://www.w3.org/2000/svg"
 width="1280.000000pt" height="1280.000000pt" viewBox="0 0 1280.000000 1280.000000"
 preserveAspectRatio="xMidYMid meet">
<metadata>
Created by potrace 1.15, written by Peter Selinger 2001-2017
</metadata>
<g transform="translate(0.000000,1280.000000) scale(0.100000,-0.100000)"
fill="#000000" stroke="none">
<path d="M5450 9324 c-80 -18 -174 -38 -210 -44 -36 -5 -94 -17 -130 -26 -36
-9 -89 -21 -117 -27 l-53 -11 0 -264 c0 -146 -4 -271 -9 -281 -7 -12 -33 -22
-83 -30 -40 -8 -127 -24 -193 -38 -109 -22 -250 -48 -395 -73 -243 -41 -236
-39 -319 -111 -43 -36 -93 -81 -112 -100 -36 -36 -81 -78 -239 -219 -52 -47
-109 -99 -127 -116 -18 -17 -55 -50 -84 -75 -28 -24 -70 -62 -93 -84 -22 -23
-84 -79 -136 -125 -52 -47 -117 -105 -144 -130 -242 -221 -270 -246 -386 -350
-40 -36 -100 -90 -134 -121 -98 -90 -422 -386 -536 -489 -58 -52 -111 -100
-118 -107 -7 -7 -18 -13 -23 -13 -5 0 -9 -103 -9 -251 l0 -251 332 5 c183 3
432 10 553 16 121 5 369 15 550 21 644 20 902 30 1075 40 96 5 243 12 325 15
83 3 164 8 180 10 17 2 151 7 299 10 149 3 273 8 277 11 4 2 170 8 370 14
l364 9 25 30 c14 16 54 64 90 107 36 42 76 89 90 103 14 14 39 42 55 62 17 20
69 81 116 135 47 55 112 131 144 169 33 39 77 89 98 112 22 23 46 52 54 63 8
11 37 44 65 73 27 29 61 69 75 90 14 20 29 37 33 37 5 0 32 30 61 68 29 37 60
72 69 79 9 6 40 43 70 82 29 39 59 72 66 75 7 3 24 22 38 43 13 21 43 59 67
84 24 25 76 83 114 128 39 46 91 106 117 135 25 28 81 92 123 141 110 129 221
257 290 335 33 37 85 97 115 134 76 93 252 290 262 294 4 2 8 8 8 14 0 5 15
26 33 46 19 21 52 57 74 81 26 29 45 42 55 38 15 -5 82 -98 143 -197 17 -27
71 -108 120 -180 50 -72 101 -148 114 -168 14 -20 54 -81 90 -134 36 -54 72
-110 80 -125 8 -16 23 -40 35 -54 12 -14 27 -35 34 -45 27 -42 89 -135 126
-190 22 -33 110 -164 195 -293 86 -128 161 -241 167 -250 6 -9 47 -69 90 -134
44 -66 95 -143 114 -172 19 -29 48 -72 63 -96 16 -24 37 -55 47 -69 9 -14 47
-71 84 -125 36 -55 83 -124 104 -154 20 -30 42 -64 47 -76 6 -11 27 -44 48
-72 20 -28 37 -56 37 -62 0 -6 4 -11 9 -11 5 0 25 -26 45 -58 19 -32 51 -78
70 -102 20 -25 36 -50 36 -56 0 -6 25 -46 55 -88 30 -42 55 -78 55 -81 0 -5
86 -131 114 -167 12 -15 39 -57 61 -93 61 -100 115 -167 132 -161 18 7 106 21
252 40 62 8 115 17 118 20 3 2 -11 28 -30 58 -69 104 -181 263 -199 283 -11
11 -31 40 -45 65 -15 25 -54 82 -87 127 -93 126 -149 204 -171 240 -22 35 -66
98 -161 227 -33 45 -82 114 -107 152 -48 70 -116 168 -232 329 -35 50 -90 128
-121 175 -31 47 -61 88 -66 91 -5 3 -30 38 -56 77 -68 102 -172 252 -252 362
-39 52 -99 138 -135 190 -36 52 -94 136 -129 185 -58 82 -123 174 -243 347
-24 34 -52 71 -63 83 -11 12 -20 25 -20 29 0 8 -56 89 -121 174 -19 26 -64 89
-100 141 -118 172 -155 226 -188 271 -17 25 -42 61 -56 80 -13 19 -34 48 -48
64 l-24 29 -194 -33 c-107 -18 -212 -36 -234 -41 -122 -26 -199 -41 -275 -53
-47 -8 -110 -19 -140 -25 -30 -5 -122 -22 -205 -36 -82 -14 -226 -41 -320 -60
-93 -19 -201 -39 -240 -44 -38 -6 -124 -22 -190 -36 -66 -14 -161 -32 -212
-40 -51 -7 -96 -16 -101 -19 -8 -5 -46 -12 -222 -41 -47 -8 -94 -16 -105 -19
-11 -3 -72 -14 -135 -26 -63 -12 -122 -23 -131 -26 -9 -3 -24 3 -33 11 -14 14
-16 48 -16 244 l0 229 -105 26 c-57 14 -106 25 -107 25 -2 -1 -68 -17 -148
-35z"/>
<path d="M8493 8606 c-4 -7 -35 -44 -68 -81 -33 -38 -84 -96 -112 -129 -29
-34 -71 -81 -94 -106 -22 -25 -45 -54 -52 -65 -6 -11 -18 -27 -28 -35 -9 -8
-47 -51 -85 -95 -37 -44 -76 -86 -86 -93 -10 -7 -18 -17 -18 -22 0 -5 -22 -33
-49 -62 -27 -29 -61 -69 -77 -88 -28 -34 -221 -255 -258 -295 -10 -11 -26 -31
-35 -45 -15 -24 -39 -51 -157 -179 -29 -31 -69 -79 -90 -106 -22 -28 -52 -64
-67 -80 -15 -17 -57 -64 -94 -105 -36 -41 -78 -88 -92 -105 -15 -16 -81 -93
-146 -170 -66 -77 -172 -199 -235 -271 -63 -73 -141 -163 -173 -200 -32 -38
-69 -81 -82 -96 -12 -14 -57 -66 -99 -116 l-76 -89 -113 -7 c-61 -4 -229 -11
-372 -16 -143 -5 -402 -16 -575 -24 -173 -8 -441 -20 -595 -26 -154 -5 -404
-15 -555 -20 -151 -6 -405 -16 -565 -21 -778 -29 -978 -39 -987 -53 -4 -6 -8
-716 -8 -1579 l0 -1567 23 -10 c12 -5 78 -14 147 -21 162 -16 237 -25 645 -79
33 -4 110 -13 170 -19 61 -6 133 -16 160 -21 28 -6 133 -19 235 -30 102 -11
228 -24 280 -30 52 -6 122 -15 155 -20 33 -5 114 -16 180 -24 105 -13 163 -20
385 -42 62 -6 202 -24 275 -35 33 -5 103 -13 155 -19 113 -11 291 -33 449 -55
145 -19 247 -19 392 0 127 18 333 42 454 55 44 4 133 15 197 24 65 9 252 30
415 47 164 18 327 35 363 40 36 4 157 19 270 33 113 14 213 26 223 26 16 0 17
66 17 1238 0 950 3 1241 12 1250 14 14 984 18 1006 4 9 -7 13 -256 15 -1183
l2 -1174 40 1 c22 1 105 9 185 18 80 9 182 20 227 25 46 5 86 12 91 15 4 2 64
12 132 21 123 16 200 24 415 44 61 6 137 15 170 20 33 5 107 15 165 21 58 6
113 14 123 16 16 5 17 76 17 1320 l0 1314 -77 116 c-81 121 -130 195 -224 335
-30 46 -64 97 -75 113 -10 16 -35 53 -54 82 -19 29 -92 138 -162 242 -71 104
-128 193 -128 197 0 5 -9 18 -20 30 -10 11 -48 64 -82 117 -64 98 -272 410
-337 506 -20 29 -44 67 -54 85 -11 18 -27 41 -36 52 -25 28 -591 878 -619 928
-12 23 -31 51 -41 62 -10 11 -26 34 -35 50 -9 17 -41 64 -71 105 -30 41 -68
96 -83 122 -29 51 -36 56 -49 34z m-4590 -3619 c17 -11 18 -58 17 -672 0 -363
0 -666 0 -672 0 -18 -141 -17 -461 2 -379 22 -553 36 -566 47 -10 8 -13 150
-13 649 0 597 1 639 18 648 27 16 983 15 1005 -2z m1715 -723 c2 -618 0 -733
-12 -743 -10 -9 -42 -9 -122 -2 -106 10 -258 21 -574 41 -464 30 -475 31 -487
48 -18 23 -19 1362 -1 1380 9 9 152 12 603 10 l590 -3 3 -731z m1960 714 c17
-17 17 -1379 0 -1396 -7 -7 -41 -12 -82 -12 -39 0 -125 -4 -191 -10 -66 -5
-253 -19 -415 -30 -162 -11 -347 -25 -412 -31 -64 -6 -126 -8 -137 -4 l-21 6
0 738 c0 406 3 741 7 744 3 4 284 7 623 7 466 0 619 -3 628 -12z m2793 2 c18
-10 19 -28 19 -605 0 -566 -1 -596 -19 -614 -15 -15 -41 -19 -147 -25 -203
-10 -466 -26 -628 -37 -108 -7 -152 -7 -160 1 -15 15 -17 1272 -2 1282 18 12
914 10 937 -2z"/>
</g>
</svg>
